<svg width="176" height="49" viewBox="0 0 176 49" fill="none" xmlns="http://www.w3.org/2000/svg">
<g clip-path="url(#clip0_1719_496)">
<path d="M12.7824 16.2322L12.7097 19.4484H20.2404L20.3131 36.8116H23.9001L23.8934 16.2322H12.7824Z" fill="white"/>
<path d="M21.8721 6.43225C20.2801 6.43225 18.9854 7.67068 18.9854 9.19344C18.9854 10.7162 20.2801 11.9546 21.8721 11.9546C23.4641 11.9546 24.7589 10.7162 24.7589 9.19344C24.7589 7.67068 23.4641 6.43225 21.8721 6.43225Z" fill="white"/>
<path d="M78.0286 13.4458V17.1042H77.7511C77.1434 16.2575 74.8577 12.8645 69.5863 12.8645C62.6765 12.8645 57.7354 17.913 57.7354 25.0087C57.7354 32.1991 62.4519 37.2413 69.3088 37.2413C74.3953 37.2413 76.8197 34.3411 77.6124 32.9131H77.8898V39.9646C77.8898 42.4667 76.8197 43.6672 74.25 43.6672H63.7004V46.9276H74.2038C78.6363 46.9276 81.5759 45.0067 81.5759 40.3184V13.4458H78.0286ZM69.725 34.0252C64.9622 34.0252 61.5139 30.3225 61.5139 25.0087C61.5139 19.5621 65.1537 16.0806 69.8175 16.0806C74.8577 16.0806 78.0352 20.1434 78.0352 25.0087C78.0352 30.7206 74.3029 34.0252 69.725 34.0252Z" fill="white"/>
<path d="M110.82 24.737C110.82 17.774 106.619 12.8645 99.2929 12.8645C92.8521 12.8645 87.5344 17.7298 87.5344 25.1414C87.5344 32.2813 92.1585 37.2413 99.5307 37.235C105.132 37.235 109.142 34.1515 110.496 29.8234L106.903 29.0209C106.11 32.237 102.986 34.1136 99.5769 34.1136C94.5366 34.1136 91.3592 31.2134 91.313 26.0323H110.82V24.737ZM91.4055 23.1763C91.6829 18.8039 95.3227 16.0364 99.2929 16.0364C103.309 16.0364 106.81 18.3553 107.042 23.1763H91.4055Z" fill="white"/>
<path d="M127.678 12.8582C120.445 12.8582 114.982 18.0393 114.988 25.0465C114.988 32.098 120.359 37.2349 127.639 37.2349C134.918 37.2349 140.335 32.0095 140.328 25.0465C140.328 18.0836 135.004 12.8582 127.678 12.8582ZM127.632 34.0188C122.453 34.0188 118.767 30.2719 118.767 25.0465C118.767 19.9602 122.407 16.0743 127.632 16.0743C132.857 16.0743 136.543 19.9096 136.55 25.0465C136.55 30.2277 132.864 34.0188 127.639 34.0188H127.632Z" fill="white"/>
<path d="M148.724 19.3346C148.724 17.3254 150.686 15.8974 153.719 15.8974C156.889 15.8974 159.228 17.5465 159.551 20.2698L162.769 19.3789C162.207 15.1834 158.144 12.8645 153.95 12.8645C148.863 12.8645 145.177 15.4109 145.177 19.341C145.177 28.5344 159.69 23.5807 159.697 30.0951C159.697 32.4582 157.689 34.1579 154.049 34.1579C150.363 34.1579 148.077 32.553 147.793 29.4253L144.431 30.2277C144.992 34.379 148.401 37.235 153.857 37.235C159.505 37.235 163.284 34.2842 163.284 29.9118C163.284 20.314 148.724 25.2235 148.724 19.3346Z" fill="white"/>
<path d="M41.6631 13.1678C35.0309 13.1678 30.0566 17.5655 30.0566 24.5727V36.8369H33.67L33.6502 24.5664C33.6502 19.48 37.0985 16.4092 41.6235 16.4092C46.1485 16.4092 49.2599 19.4357 49.2599 24.5664L49.2401 36.8306H52.8601V24.5664C52.8601 17.6034 48.2228 13.1678 41.6631 13.1678Z" fill="white"/>
<path d="M14.9689 45.3542H3.77195V34.6823H0V45.3542V48.9621V49H3.77195V48.9621H14.9689V45.3542Z" fill="#F28B30"/>
<path d="M161.031 3.64578H172.222V14.3177H176V3.64578V0.0315925V0H172.222V0.0315925H161.031V3.64578Z" fill="#F28B30"/>
</g>
<defs>
<clipPath id="clip0_1719_496">
<rect width="176" height="49" fill="white"/>
</clipPath>
</defs>
</svg>
