<?xml version="1.0" encoding="utf-8"?>
<!-- Generator: Adobe Illustrator 21.0.2, SVG Export Plug-In . SVG Version: 6.00 Build 0)  -->
<svg version="1.1" id="Capa_1" xmlns="http://www.w3.org/2000/svg" xmlns:xlink="http://www.w3.org/1999/xlink" x="0px" y="0px"
	 viewBox="0 0 176 49" style="enable-background:new 0 0 176 49;" xml:space="preserve">
<style type="text/css">
	.st0{fill:#192959;}
	.st1{fill:#F28B30;}
</style>
<g>
	<g>
		<path class="st0" d="M12.8,16.2l-0.1,3.2h7.5l0.1,17.4h3.6l0-20.6H12.8z"/>
		<path class="st0" d="M21.9,6.4c-1.6,0-2.9,1.2-2.9,2.8s1.3,2.8,2.9,2.8c1.6,0,2.9-1.2,2.9-2.8S23.5,6.4,21.9,6.4z"/>
		<path class="st0" d="M78,13.4v3.7h-0.3c-0.6-0.8-2.9-4.2-8.2-4.2c-6.9,0-11.9,5-11.9,12.1c0,7.2,4.7,12.2,11.6,12.2
			c5.1,0,7.5-2.9,8.3-4.3h0.3V40c0,2.5-1.1,3.7-3.6,3.7H63.7v3.3h10.5c4.4,0,7.4-1.9,7.4-6.6V13.4H78z M69.7,34
			c-4.8,0-8.2-3.7-8.2-9c0-5.4,3.6-8.9,8.3-8.9c5,0,8.2,4.1,8.2,8.9C78,30.7,74.3,34,69.7,34z"/>
		<path class="st0" d="M110.8,24.7c0-7-4.2-11.9-11.5-11.9c-6.4,0-11.8,4.9-11.8,12.3c0,7.1,4.6,12.1,12,12.1c5.6,0,9.6-3.1,11-7.4
			l-3.6-0.8c-0.8,3.2-3.9,5.1-7.3,5.1c-5,0-8.2-2.9-8.3-8.1h19.5V24.7z M91.4,23.2c0.3-4.4,3.9-7.1,7.9-7.1c4,0,7.5,2.3,7.7,7.1
			H91.4z"/>
		<path class="st0" d="M127.7,12.9C120.4,12.9,115,18,115,25c0,7.1,5.4,12.2,12.7,12.2c7.3,0,12.7-5.2,12.7-12.2
			C140.3,18.1,135,12.9,127.7,12.9z M127.6,34c-5.2,0-8.9-3.7-8.9-9c0-5.1,3.6-9,8.9-9c5.2,0,8.9,3.8,8.9,9
			C136.6,30.2,132.9,34,127.6,34L127.6,34z"/>
		<path class="st0" d="M148.7,19.3c0-2,2-3.4,5-3.4c3.2,0,5.5,1.6,5.8,4.4l3.2-0.9c-0.6-4.2-4.6-6.5-8.8-6.5c-5.1,0-8.8,2.5-8.8,6.5
			c0,9.2,14.5,4.2,14.5,10.8c0,2.4-2,4.1-5.6,4.1c-3.7,0-6-1.6-6.3-4.7l-3.4,0.8c0.6,4.2,4,7,9.4,7c5.6,0,9.4-3,9.4-7.3
			C163.3,20.3,148.7,25.2,148.7,19.3z"/>
		<path class="st0" d="M41.7,13.2c-6.6,0-11.6,4.4-11.6,11.4v12.3h3.6l0-12.3c0-5.1,3.4-8.2,8-8.2s7.6,3,7.6,8.2l0,12.3h3.6V24.6
			C52.9,17.6,48.2,13.2,41.7,13.2z"/>
		<path class="st1" d="M15,45.4H3.8V34.7H0v10.7V49v0h3.8v0H15V45.4z"/>
		<path class="st1" d="M161,3.6h11.2v10.7h3.8V3.6V0v0h-3.8v0H161V3.6z"/>
	</g>
</g>
</svg>
