<?xml version="1.0" encoding="utf-8"?>
<!-- Generator: Adobe Illustrator 25.2.1, SVG Export Plug-In . SVG Version: 6.00 Build 0)  -->
<svg version="1.1" id="Capa_1" xmlns="http://www.w3.org/2000/svg" xmlns:xlink="http://www.w3.org/1999/xlink" x="0px" y="0px"
	 viewBox="0 0 24 24" style="enable-background:new 0 0 24 24;" xml:space="preserve">
<style type="text/css">
	.st0{fill:#192959;}
</style>
<path class="st0" d="M12,0C5.4,0,0,5.4,0,12s5.4,12,12,12c6.6,0,12-5.4,12-12S18.6,0,12,0z M15.8,12.8h-3v3c0,0.4-0.4,0.8-0.8,0.8
	c-0.4,0-0.8-0.4-0.8-0.8v-3h-3c-0.4,0-0.8-0.4-0.8-0.8c0-0.4,0.4-0.8,0.8-0.8h3v-3c0-0.4,0.4-0.8,0.8-0.8c0.4,0,0.8,0.4,0.8,0.8v3h3
	c0.4,0,0.8,0.4,0.8,0.8C16.6,12.4,16.2,12.8,15.8,12.8z"/>
</svg>
